<?xml version="1.0" encoding="UTF-8" standalone="no"?>
<!-- Created with Inkscape (http://www.inkscape.org/) -->

<svg
   width="511.99997"
   height="511.99997"
   viewBox="0 0 135.46666 135.46666"
   version="1.1"
   id="svg5"
   xml:space="preserve"
   inkscape:version="1.2.2 (732a01da63, 2022-12-09)"
   sodipodi:docname="preview.svg"
   inkscape:export-filename="preview.png"
   inkscape:export-xdpi="96.000008"
   inkscape:export-ydpi="96.000008"
   xmlns:inkscape="http://www.inkscape.org/namespaces/inkscape"
   xmlns:sodipodi="http://sodipodi.sourceforge.net/DTD/sodipodi-0.dtd"
   xmlns="http://www.w3.org/2000/svg"
   xmlns:svg="http://www.w3.org/2000/svg"><sodipodi:namedview
     id="namedview7"
     pagecolor="#ffffff"
     bordercolor="#000000"
     borderopacity="0.25"
     inkscape:showpageshadow="2"
     inkscape:pageopacity="0.0"
     inkscape:pagecheckerboard="0"
     inkscape:deskcolor="#d1d1d1"
     inkscape:document-units="mm"
     showgrid="false"
     inkscape:zoom="1.2938725"
     inkscape:cx="149.9375"
     inkscape:cy="277.46166"
     inkscape:window-width="2560"
     inkscape:window-height="1369"
     inkscape:window-x="-8"
     inkscape:window-y="-8"
     inkscape:window-maximized="1"
     inkscape:current-layer="layer1" /><defs
     id="defs2" /><g
     inkscape:label="Layer 1"
     inkscape:groupmode="layer"
     id="layer1"
     transform="translate(-60.890556,-3.6335053)"><rect
       style="fill:#ed2939;fill-opacity:1;stroke-width:0.248817"
       id="rect505"
       width="135.46664"
       height="32.484425"
       x="60.890572"
       y="13.040022" /><g
       id="g36"
       transform="matrix(0.06028571,0,0,0.06028571,69.707643,36.121381)"><path
         d="m 2005.5,973.46 v 14.306 c 0.175,-0.383 0.335,-0.792 0.474,-1.243 1.516,-4.932 1.549,-9.306 -0.474,-13.063 z"
         fill="none"
         id="path9" /><path
         d="m 50.124,377.17 c 0.247,0.32 0.498,0.637 0.747,0.954 v -1.373 c -0.25,0.14 -0.494,0.281 -0.747,0.419 z"
         fill="none"
         id="path11" /><path
         d="m 2001.1,968.51 c -3.223,-2.467 -6.032,-4.327 -9.573,-6.336 -2.83,-1.606 -4.093,-8.069 -6.493,-10.923 -1.639,-2.255 -8.576,-6.453 -7.076,-9.671 0.541,-1.161 3.623,-1.86 4.745,-2.836 2.796,-2.427 -0.148,-6.127 2.914,-8.921 4.474,-4.085 5.507,-7.159 4.078,-13.007 -0.715,-2.926 -1.602,-4.375 0.417,-6.92 2.959,-3.728 2.401,-5.108 2.996,-9.506 -0.598,-4.305 -0.06,-8.8 -0.582,-13.007 -0.331,-2.665 -4.589,-1.73 -6.577,-2.418 -2.733,-0.947 -3.09,-2.954 -5.327,-4.086 -1.835,-0.929 -3.861,-1.221 -4.495,-3.502 -0.466,-1.675 0.826,-2.917 0.416,-4.67 -0.989,-4.222 -1.75,-3.397 -0.083,-8.004 0.866,-2.396 7.51,-7.13 2.164,-7.921 -2.539,-0.376 -6.404,0.89 -8.574,-0.5 -2.931,-1.876 -4.332,-4.726 -7.576,-6.253 -3.191,-5.801 -3.259,0.257 -7.658,0.417 -5.357,0.195 -4.321,-4.949 -8.824,-4.086 -3.088,0.592 -6.428,-1.286 -7.908,1.751 -2.693,5.52 -4.22,-5.934 -10.739,0 -1.648,1.502 -9.195,6.843 -11.156,4.503 -2.098,-2.505 -0.851,-5.803 -1.915,-8.671 -0.544,-1.468 -1.867,-3.574 -2.913,-4.753 -2.169,-2.441 0,-5.502 -4.079,-6.003 -4.708,-0.578 -8.348,-2.084 -7.492,-7.838 0.845,-0.911 1.931,-1.485 2.498,-2.585 0.516,-0.996 0.798,-1.821 -0.417,-2.501 -1.59,-0.89 -3.364,-1.305 -5.077,-1.918 -1.015,-0.762 -1.986,-1.423 -2.498,-2.585 -0.135,-0.306 0.443,-0.874 0.5,-1.168 0.555,-2.836 -1.998,-5.107 -1.998,-7.837 -0.863,-6.909 3.218,-8.134 8.407,-10.422 3.472,-1.532 5.468,-2.574 4.995,-6.754 -0.655,-5.795 7.642,-4.033 9.823,-8.087 1.055,-1.962 -0.679,-5.699 2.913,-5.586 3.464,0.108 4.347,1.635 7.076,-2.001 0.429,-1.866 1.687,-5.324 2.83,-6.837 2.39,-3.163 6.745,-4.629 8.491,-8.421 1.08,-2.344 2.263,-5.725 2.164,-8.338 -0.156,-4.146 -7.734,-1.453 -10.073,-1.084 -2.126,0.337 -5.25,1.337 -7.326,0.584 -3.205,-1.163 -5.225,-3.449 -7.992,-5.253 -3.627,0.214 -5.507,-3.275 -9.989,-0.5 -2.757,1.708 -6.031,5.25 -9.657,4.753 -3.877,-0.533 1.443,-4.659 1.332,-6.253 -0.197,-2.816 -10.979,-5.163 -2.331,-8.504 7.634,-2.951 -4.383,-9.639 -5.91,-13.758 -1.186,-3.198 0.116,-6.235 -3.164,-8.505 -4.796,-3.317 -6.962,-3.938 -8.158,-10.672 -1.74,-3.137 -3.37,-7.219 -5.578,-10.006 -3.638,-4.59 -3.842,-11.771 -9.823,-14.758 -6.285,-3.138 -17.966,-4.336 -24.891,-4.336 -2.33,-1.509 -5.719,-2.754 -8.491,-3.002 -2.769,-0.248 -3.914,1.085 -5.743,-1.668 -2.062,-3.101 1.319,-9.566 2.663,-12.59 1.349,-3.035 -3.787,-3.944 -5.41,-5.086 -1.871,-1.316 -3.242,-3.221 -5.245,-4.252 -1.448,2.016 -9.549,1.755 -12.321,2.084 -2.907,0.344 -6.829,-0.794 -9.24,-2.418 -2.124,-1.43 -3.509,-3.711 -5.827,-5.169 -3.35,-2.107 -4.8,1.283 -8.157,1.501 -4.446,0.288 -7.518,3.507 -11.572,4.586 -4.743,0.823 -16.874,5.193 -18.98,-1.084 -2.032,-6.055 -1.099,-12.598 -8.824,-7.42 -2.831,1.897 -8.373,4.864 -11.572,5.919 -4.394,1.449 -0.709,-9.502 -8.324,-5.503 -3.806,1.998 -6.342,3.128 -10.49,4.419 -5.135,0 -9.021,-9.323 -10.656,-8.504 -6.849,3.428 -4.631,-9.192 -7.575,-9.756 -3.277,-0.629 -6.735,0.909 -8.99,3.169 -1.746,1.749 -9.827,6.877 -9.574,8.671 0.349,2.474 0.859,5.954 -1.915,7.087 -3.538,1.447 -5.102,-3.669 -7.909,-3.669 -4.657,0 -7.69,4.882 -11.988,5.836 l -5.451,-1.83 1.383,-5.619 3.387,-4.992 2.18,-4.323 0.08,-4.664 -2.92,-5.165 -0.394,-3.254 2.942,-12.297 -5.869,-3.713 c -2.73,-1.289 -4.063,-2.245 -7.242,-2.669 -2.265,-0.302 -4.602,-1.145 -6.66,-2.001 -4.151,-1.725 -4.811,-8.71 -5.327,-12.59 -0.467,-3.516 -3.818,-4.695 -3.996,-8.005 -0.912,-6.125 -0.266,-20.065 5.328,-23.679 7.203,-4.651 13.155,-7.535 17.814,-15.091 3.509,-5.689 7.071,-3.276 6.826,-11.09 -0.28,-8.932 7.2,-0.393 11.016,-1.076 l 5.754,-18.5 5.808,-7.235 3.349,-5.642 0.692,-7.154 -9.387,-11.504 c 0.739,-6.454 1.786,-7.877 6.909,-11.423 3.368,-2.331 6.522,-4.986 7.908,-9.088 2.784,-8.238 -0.394,-16.646 5.91,-23.93 1.967,-2.272 -7.373,-7.259 -6.077,-12.341 1.567,-3.004 3.796,-6.75 4.662,-10.005 0.582,-2.186 -0.043,-4.365 0.666,-6.503 1.382,-4.173 12.238,7.583 12.238,-2.418 0,-4.971 -1.817,-6.623 2.414,-10.589 5.352,-5.015 -6.347,-10.285 -4.329,-13.008 0.381,-0.514 5.356,-1.226 6.743,-2.251 5.701,-4.212 16.853,1.141 11.571,-9.422 -6.341,-2.779 -16.109,-1.803 -9.407,-11.34 3.741,-5.325 10.021,-8.075 15.817,-10.339 4.825,-1.885 9.255,-2.352 5.078,-7.337 -4.489,-5.359 -8.782,-8.424 -11.988,-15.008 -1.41,-2.894 -2.533,-7.43 -5.661,-1.168 -3.045,6.098 -4.835,0.417 -10.323,3.836 -1.785,1.343 -6.706,7.465 -9.157,5.92 -2.299,-1.448 -0.965,-6.951 -1.748,-9.505 -0.818,-2.674 -3.856,-0.901 -4.912,-2.585 -1.941,-3.097 2.049,-6.083 1.915,-8.588 -0.234,-4.367 -8.612,-5.103 -11.572,-6.42 -9.282,-4.131 -12.165,-5.2 -21.145,0.75 -4.711,3.121 -9.6,-0.145 -14.069,-2.168 -5.346,-2.421 -10.896,2.018 -12.654,-5.919 -0.874,-3.944 -1.73,-3.212 -4.578,-5.419 l -43.705,-17.426 -1.082,-10.422 c -2.134,-6.096 1.581,-15.294 1.581,-21.762 0,-10.541 -4.189,-7.654 -10.906,-12.841 -4.713,-3.64 -5.107,-8.397 -8.74,-12.173 -2.622,-2.726 -13.892,-5.586 -17.732,-5.586 -4.509,5.648 -5.312,10.085 -12.487,14.008 -8.172,4.469 -11.332,2.741 -17.482,11.089 -5.055,6.859 -6.37,1.102 -12.404,2.251 -7.613,-0.722 -15.03,-5.316 -22.643,-6.836 -9.517,-1.901 -3.672,4.292 -9.99,8.087 -10.34,6.213 -28.389,-0.791 -39.542,0.084 -2.918,0.229 -6.414,2.842 -8.824,2.751 -2.595,-0.098 -5.588,-4.68 -7.824,-6.086 -1.106,-2.925 5.006,-23.246 5.827,-27.765 0,-4.012 -1.047,-10.875 -5.578,-12.006 -4.214,-1.051 -13.824,-6 -17.815,-4.503 -4.937,1.851 -10.313,6.084 -15.4,8.421 -4.743,2.181 -12.781,1.747 -14.902,-3.836 -2.161,-5.688 -0.999,-13.315 -0.999,-19.344 0,-5.229 1.88,-7.762 -3.246,-10.255 -2.911,-1.417 -2.76,-4.009 -4.995,-6.086 l -0.518,-0.596 v 1296.5 c 3.102,10.41 6.507,25.062 14.753,19.346 13.717,-9.508 6.486,6.06 10.572,12.84 3.027,5.022 6.169,2.053 10.323,1.918 4.459,-0.144 2.346,2.718 7.326,-0.083 6.004,-3.378 6.938,7.202 12.071,3.585 5.259,-3.708 6.788,-2.43 9.573,1.918 3.828,5.979 9.83,-14.655 15.068,-5.003 3.618,6.665 8.11,10.565 14.235,15.175 4.724,1.248 9.822,9.676 13.32,13.174 2.513,2.512 -2.892,6.996 -4.412,9.421 -0.981,1.564 -0.325,2.681 -2.081,4.17 -7.789,6.607 -2.663,9.698 -2.663,18.259 0,2.057 1.668,5.146 3.912,3.086 4.772,-4.382 10.75,-0.042 12.404,-6.837 0.702,-2.88 2.654,-9.543 6.909,-6.337 2.565,1.934 3.258,4.508 6.909,5.253 5.056,1.03 5.991,3.913 9.824,5.336 1.706,0.634 4.095,-0.249 5.244,1.668 1.534,2.555 1.182,3.484 4.579,4.336 5.234,1.745 2.989,3.493 5.411,7.003 1.797,2.602 5.91,2.03 5.91,6.42 0,4.471 0.555,13.413 3.08,17.176 1.41,2.099 7.608,0.01 8.074,1.834 1.222,4.787 -7.252,9.352 -2.247,13.591 5.202,4.405 10.952,7.833 9.49,15.592 -2.43,2.14 -4.219,5.04 -6.909,7.337 -6.844,5.846 6.327,4.663 6.327,10.755 0,3.192 2.877,9.35 7.075,7.004 3.934,-2.197 -0.406,-6.908 5.578,-8.421 2.315,-0.585 4.702,1.334 6.992,1.334 4.327,0 9.064,-2.539 12.737,-4.585 5.217,-2.909 7.691,-8.358 12.654,-11.59 3.131,-1.223 7.736,-1.957 10.989,-0.834 3.195,1.104 10.999,6.825 12.987,9.589 0.956,1.328 2.339,6.775 3.163,7.003 1.613,0.446 5.191,-5.458 5.91,-6.67 3.056,-5.147 -1.058,-6.377 -2.747,-10.756 -0.423,-1.097 3.325,-2.859 4.163,-3.502 2.207,-1.693 3.859,-4.171 4.744,-6.837 2.676,-1.082 4.442,-3.735 6.91,-5.253 2.411,-1.481 5.012,-2.375 7.908,-2.502 l 3.496,0.251 c 4.443,2.845 10.063,2.416 14.069,5.002 3.311,2.138 3.989,3.449 8.158,4.585 4.832,1.318 5.172,-2.074 8.657,-3.418 3.306,-1.276 8.335,8.846 11.738,1.168 2.165,-4.885 -1.782,-7.294 3.663,-10.339 2.825,-1.578 3.092,-5.618 7.658,-3.336 4.284,2.141 3.922,7.49 9.407,7.921 3.857,0.304 9.201,-0.454 11.489,3.752 1.209,-0.753 3.461,-3.835 4.662,-3.919 4.978,-0.349 5.587,0.219 8.325,-4.419 1.079,-1.828 2.286,-4.993 4.162,-6.087 3.474,-2.024 10.206,-4.998 10.49,-9.421 0.193,-3.015 1.051,-4.968 1.498,-7.754 0.681,-4.237 -9.99,4.053 -9.99,-3.92 0,-1.854 -0.837,-5.27 0.499,-6.336 4.019,-3.212 6.903,-3.097 10.406,-8.004 1.694,-2.86 0.712,-5.472 3.08,-8.254 2.015,-2.369 5.761,-2.769 7.492,-4.836 2.543,-3.036 2.11,-7.781 2.914,-11.339 0.434,-1.921 1.336,-3.682 1.665,-5.67 0.412,-2.494 0.352,-4.921 0.666,-7.42 1.506,-10.59 -9.939,-9.987 -17.149,-14.425 -3.087,-1.9 -4.8,-3.914 -3.247,-7.671 1.271,-3.077 0.889,-5.504 1.832,-8.337 1.206,-3.626 11.719,-5.572 9.573,-10.173 -2.37,-5.082 -7.426,-16.76 -13.903,-14.258 -4.796,1.854 -6.757,4.062 -11.156,1.335 -3.281,-2.034 -5.986,3.21 -6.492,-4.503 0,-5.395 1.541,-3.583 3.579,-7.671 2.276,-4.567 -5.965,-5.59 -7.242,-10.589 -1.971,-7.708 -7,-16.007 -10.823,-22.846 -0.793,-1.418 -1.748,-2.251 -1.748,-4.086 0,-1.494 0.707,-7.12 -2.497,-6.337 -1.38,0.338 -2.029,1.501 -3.829,1.501 -1.981,0 -4.247,-0.369 -6.16,-0.084 -4.703,2.648 -8.46,2.357 -6.743,-4.252 0.823,-3.167 -0.332,-7.665 -1.498,-10.589 -1.651,-4.137 -1.461,-10.74 -1.665,-15.258 -0.092,-2.029 -1.719,-6.117 -0.167,-7.671 3.892,-3.902 2.296,-2.484 1.249,-8.004 1.216,-4.312 4.175,-2.236 3.33,-7.337 -0.273,-1.651 -1.341,-6.651 1.165,-6.92 5.504,-0.593 9.94,2.818 10.157,-5.336 0.258,-9.728 -18.843,-9.642 -22.144,-17.76 -0.701,-1.723 4.25,-4.572 5.411,-5.419 1.854,-1.351 2.166,-2.783 3.33,-4.585 1.043,-1.617 5.172,-0.961 5.41,-3.586 0.286,-3.154 -0.145,-6.128 0.333,-9.505 0.971,-4.375 5.372,-3.717 2.747,-8.171 -2.38,-4.035 -0.975,-5.823 1.915,-8.671 1.395,-1.374 2.246,-5.86 4.162,-8.171 6.548,-7.902 6.968,-0.564 13.07,-1.501 3.277,-0.503 -0.659,-5.938 4.495,-6.67 2.933,-0.417 13.097,-8.856 12.321,-12.173 -0.342,-1.459 -5.131,-3.017 -6.409,-3.919 -2.954,-2.086 -3.88,-8.842 -3.413,-12.09 -0.713,-9.455 9.371,-7.56 14.485,-12.674 1.466,-1.466 4.173,-3.77 5.078,-5.586 0.699,-1.401 -1.79,-3.545 -1.332,-5.336 0.576,-2.247 8.321,-4.971 4.828,-8.671 -1.545,-1.636 -5.429,-4.571 -5.328,-6.92 0.061,-1.418 5.315,-13.049 6.41,-13.675 5.53,-3.165 10.222,0.429 9.656,-8.754 -0.222,-2.837 -1.877,-8.151 0.999,-9.589 3.45,-1.723 2.271,-4.53 1.831,-7.504 -1.404,-9.499 25.77,-14.848 31.052,-19.844 3.733,-3.532 1.915,-8.92 1.915,-13.257 0,-2.749 4.55,-3.707 4.661,-6.17 0.122,-2.716 -2.861,-4.052 -1.998,-8.171 2.327,-4.943 2.516,-8.405 8.991,-7.253 7.734,1.376 14.094,-4.686 21.311,-4.919 3.299,-0.107 2.497,2.689 2.497,5.336 0,3.459 0.184,8.629 3.413,10.672 l 4.578,1.835 c 3.686,1.476 6.828,5.122 11.239,3.419 2.616,-1.011 5.213,-0.384 5.91,-3.253 1.525,-6.266 2.163,-13.361 9.49,-8.921 3.119,1.89 8.046,2.03 10.739,4.585 2.5,2.372 -1.798,4.381 -0.166,6.587 3.858,5.21 3.151,4.066 -0.333,9.505 -3.526,5.507 0.14,6.755 4.245,9.839 l 5.504,1.663 -0.079,-0.292 c -0.119,-0.544 -0.052,-1.027 0.398,-1.371 3.596,-2.752 14.247,-10.935 6.826,-12.841 -2.474,-0.635 -4.693,-0.696 -6.493,-3.002 -2.869,-3.675 8.372,-4.12 5.328,-7.17 -2.437,-2.441 -4.592,-5.641 -2.664,-9.172 1.667,-3.052 3.855,-2.147 5.327,-4.169 1.882,0.493 1.723,0.546 2.502,2.085 1.179,2.334 2.202,-0.63 3.413,-1.585 2.889,-2.276 7.413,0.151 10.573,-1.251 3.97,-1.761 2.14,-3.797 0.582,-6.503 -2.346,-4.074 -0.748,-6.694 -0.416,-10.756 0.412,-5.032 -1.785,-6.394 -3.746,-10.756 l -4.761,-5.534 c 0.934,-4.724 1.11,-8.454 4.675,-12.726 4.777,-5.722 12.237,-9.02 16.237,-15.069 5.717,-1.44 10.4,-2.576 15.401,-5.943 7.157,-4.816 14.534,0.285 21.145,-6.336 1.681,-1.683 5.155,-3.299 4.328,-6.003 -1.18,-3.863 -3.386,-3.93 -2.164,-8.838 l 0.224,-4.267 c 1.502,-0.776 2.864,-1.731 3.935,-2.903 1.833,-2.007 -1.452,-6.34 1.165,-7.504 2.308,-1.026 5.379,1.321 5.827,-1.835 0.239,-1.684 -1.301,-5.421 -1.332,-7.17 2.397,-1.228 4.022,-1.251 6.581,-1.251 3.321,0 6.188,-4.872 7.825,-1 1.957,4.631 4.688,3.34 8.325,6.003 1.118,0.819 4.267,6.646 5.66,5.253 2.494,-2.493 1.689,-4.897 6.16,-6.753 4.892,-2.032 10.6,-1.142 13.013,-6.428 v -14.306 c -0.958,-1.797 -2.383,-3.45 -4.348,-4.953 z"
         fill="#ed2939"
         id="path13" /><path
         d="m 1265.7,92.229 c -0.908,-0.731 -0.501,-1.455 0.333,-2.022 0.446,-0.304 0.089,-0.692 0.728,-1.022 0.589,-0.304 0.277,-1.289 0.062,-1.772 -0.243,-0.549 -1.081,-0.286 -1.498,-0.187 0,0.958 -2.427,1.055 -2.497,2.376 -0.031,0.587 -0.746,1.778 -1.395,1.752 -1.387,-0.058 -0.251,-2.558 -0.478,-3.065 l -0.645,-0.855 c -0.356,0.102 -0.621,0.188 -0.999,0.188 0,-0.391 0.688,-0.617 0.437,-1.188 -0.089,-0.201 -1.723,-0.774 -2.04,-0.626 -0.368,0.172 0.52,2.218 0.52,2.898 0,0.928 -0.894,1.638 -0.77,2.606 0.097,0.754 0.396,2.075 -0.062,2.71 -0.382,0.528 -0.984,0.282 -1.478,0.48 -0.741,0.298 -0.994,0.816 0.042,0.792 0.974,-0.022 1.62,0.796 2.456,1.001 0.796,0.194 1.616,0.243 2.31,0.687 0.486,0.312 0.568,1.249 0.936,1.71 0.65,0.817 2.391,-0.065 3.476,0.667 0.789,0.531 2.045,-0.597 2.372,-1.292 0.702,-1.49 -0.656,-1.381 -0.999,-2.46 -0.361,-1.132 1.329,-0.194 1.582,-0.73 0.248,-0.528 -0.776,-0.627 -0.167,-1.73 1.073,-1.944 -1.068,0.014 -2.226,-0.918 z"
         fill="#fae042"
         id="path15" /><path
         d="m 1332.2,130.89 15.068,-27.514 c 0,-7.202 0.184,-11.126 -3.163,-17.76 l -7.825,-15.508 c -2.166,-4.293 -7.21,-4.339 -10.989,-6.753 -3.792,-2.423 -10.779,-10.546 -14.236,-7.337 -2.192,2.033 -9.681,13.716 -8.824,16.592 1.121,3.756 0.999,5.638 0.832,9.338 -0.125,2.76 -4.651,8.4 -7.159,9.172 -4.461,4.046 -27.57,30.226 -31.468,29.266 -1.344,-0.331 -1.745,5.253 -3.579,7.087 -5.219,5.219 -5.357,-0.978 -7.242,-4.086 -1.056,-1.742 -4.438,-2.22 -4.828,-4.67 -0.805,-5.053 -7.711,-8.656 -13.07,-7.671 -4.048,0.745 -5.944,7.219 -9.656,5.419 l -10.49,-5.086 c -2.066,-1.001 -4.021,2.288 -6.493,2.752 -6.493,1.219 -14.272,5.315 -20.895,2.001 -2.286,-1.144 -10.191,-13.641 -8.74,-15.092 4.656,-4.656 10.808,1.85 15.234,0.083 0.845,-0.338 5.812,1.739 6.66,2.418 7.297,5.832 14.397,10.57 9.407,-1.667 -2.297,-5.629 -3.386,-7.882 -2.664,-14.258 0.564,-4.989 5.917,-9.858 4.995,-13.091 0,-3.857 5.108,-12.231 2.247,-15.092 -3.925,-3.925 -10.429,1.996 -11.738,-6.337 -0.687,-4.375 -1.96,-5.201 -5.91,-6.836 -3.693,-1.528 -11.133,-1.112 -13.154,-4.336 -1.979,-3.155 -14.19,2.373 -15.4,5.419 -2.175,5.479 0.175,4.71 -5.911,7.587 -8.846,3.986 -8.724,13.396 -18.064,16.509 -5.948,1.982 -0.718,12.767 -11.655,15.258 -7.372,1.68 -5.87,2.095 -5.661,9.672 0.333,12.086 0.477,5.953 -9.49,7.754 -6.064,1.096 -1.785,3.241 -8.408,-0.083 -4.089,-2.053 -10.618,-1.436 -15.234,-3.252 -7.97,-3.135 -12.006,-1.882 -19.98,-0.667 -7.29,4.048 -16.067,13.026 -16.067,0.083 0,-8.552 -1.453,-16.155 2.747,-23.763 1.451,-2.629 5.669,-8.944 4.912,-12.007 -5.669,-1.612 -3.909,-5.757 -11.655,-4.919 l -23.143,2.502 c -5.487,0.593 -10.434,4.452 -15.234,6.92 l -21.894,11.256 c -2.687,1.381 -10.047,3.479 -11.738,5.169 0,2.443 7.392,4.058 8.407,7.504 0.789,2.676 -3.456,13.321 -4.828,15.592 -4.132,10.898 30.703,38.631 18.648,44.191 l -17.899,8.255 c -3.835,1.769 -22.411,-0.318 -24.391,-4.003 -1.239,-2.304 -3.491,-11.115 -4.578,-12.09 -0.89,-0.799 -14.124,0.357 -16.65,0.083 l -30.333,0.593 c 0.276,2.064 0.342,4.085 0.199,5.911 1.554,7.787 2.373,7.181 7.908,11.339 2.083,1.564 8.791,5.38 7.491,8.338 -0.974,2.216 1.117,3.824 2.664,5.503 7.203,7.819 -3.493,21.237 8.075,29.266 6.598,4.58 12.1,6.002 16.649,13.258 l 1.083,4.919 3.912,2.752 3.579,-4.503 -9.407,-16.758 -6.659,-13.591 -7.076,-17.76 -2.414,-7.17 -2.248,-10.256 h 2.997 l 3.496,9.922 4.163,16.345 16.9,1.084 0.333,2.919 -15.152,-0.167 2.414,7.17 14.902,28.099 18.398,0.75 -0.084,2.418 h -16.483 l 8.741,8.171 -1.415,0.751 -9.574,-7.337 -2.914,3.752 7.326,7.837 12.903,-0.333 0.416,2.168 -11.738,0.167 -0.083,2.585 10.739,0.166 0.25,2.002 -10.906,-0.167 -0.083,3.169 17.232,0.75 0.583,1.501 -19.896,-0.25 -1.249,-10.422 -6.742,-8.338 -2.331,6.753 -2.331,-1 1.748,-9.089 c -0.777,-0.713 -1.564,-1.462 -2.164,-2.334 -0.345,-0.5 -0.849,-1.001 -1.499,-1.001 -1.654,0 -2.195,1.12 -2.747,2.502 -0.335,0.84 -0.657,1.266 -1.248,2.001 -1.973,3.945 -8.173,7.139 -4.995,11.089 2.005,2.49 7.843,2.883 10.739,4.253 7.867,3.721 12.295,13.026 22.56,10.589 2.616,-0.621 12.654,-0.234 12.654,3.586 -4.306,0 -9.31,-0.834 -13.986,-0.834 -4.852,0 -10.643,-1.341 -14.735,-3.836 -3.392,-2.067 -5.736,-4.961 -9.49,-6.336 -5.907,-2.162 -11.549,-3.817 -13.57,-10.256 l -17.815,0.334 -2.664,2.501 -2.33,-1 1.831,-4.42 -3.579,-1.417 -7.576,10.839 -2.33,-1.334 5.993,-12.007 -8.074,-4.503 -8.658,12.424 -1.581,-1.918 20.978,-30.183 2.747,2.251 -11.905,14.508 10.073,6.336 3.662,-3.669 2.747,2.001 -2.58,3.419 6.992,3.336 c 2.655,0.46 4.844,0.166 7.409,0.166 2.035,0 3.998,0.572 5.993,0.667 5.141,0.245 5.136,-6.408 6.66,-10.005 11.524,-10.261 -4.972,-12.468 -12.155,-16.592 -10.504,-6.031 -8.71,-16.729 -10.323,-27.264 -0.436,-2.849 -10.927,-13.532 -13.653,-15.092 l -35.796,45.109 -41.79,29.432 c -4.548,1.782 -10.541,6.492 -14.818,9.339 -5.877,3.911 -5.451,0.303 -10.073,0.083 -2.64,-0.126 -3.199,3.296 -6.327,1.001 -3.243,-2.38 -6.081,-0.478 -8.741,2.084 -3.437,3.312 -7.63,4.541 -10.573,8.672 -4.514,6.336 -9.921,5.911 -13.653,12.673 -3.242,5.876 -6.621,2.284 -10.24,-0.083 -7.624,-4.989 -3.234,-1.46 -10.073,1.751 -1.977,5.13 -5.348,11.366 -12.321,8.671 -4.99,-1.928 -7.874,-4.897 -3.413,-8.588 1.898,-1.569 2.732,-4.425 1.332,-6.503 -1.704,-2.533 -6.279,1.89 -7.659,3.002 -5.32,4.281 -8.719,4.591 -15.151,4.753 -2.987,0.075 -4.679,0.984 -6.974,1.008 v 686.12 c 0.744,-0.255 1.62,-0.327 2.728,-0.088 2.267,0.49 8.275,1.085 9.907,2.335 5.936,4.547 1.845,10.146 12.654,8.171 4.477,-0.818 3.754,3.045 3.413,6.169 -0.839,7.67 17.091,-1.093 19.812,-3.002 2.976,-2.089 17.789,-12.172 20.979,-10.589 0.328,1.327 -1.665,2.832 -0.75,3.753 2.023,0 3.597,-1.137 5.744,-0.584 1.721,0.443 1.841,1.86 3.996,1.668 0.828,-1.11 3.466,-3.622 4.745,-4.086 2.578,-0.631 7.606,-0.822 9.407,-2.752 3.057,-3.277 5.204,-9.914 8.075,-2.252 0.96,2.564 1.667,7.678 3.745,9.339 2.183,1.745 5.636,0.315 7.659,1.834 2.772,2.082 -1.038,5.37 4.412,7.17 4.101,1.355 5.638,5.195 7.159,8.838 0.814,2.264 0.766,7.195 4.078,7.087 3.509,-0.113 6.22,-3.259 9.823,-0.583 1.446,1.075 2.907,4.309 4.412,5.919 4.577,4.899 7.425,4.545 7.159,12.757 -0.119,3.677 -2.841,9.978 2.164,10.923 7.792,1.473 -0.432,12.954 9.157,14.091 6.564,0.778 13.577,-1.405 7.658,-8.421 -1.897,-2.25 -9.036,-6.271 -3.246,-8.754 2.325,-0.996 5.314,-8.103 8.074,-5.17 4.373,4.645 -0.406,10.172 9.49,10.172 9.037,0 9.698,-2.058 13.486,6.169 0,3.584 4.307,5.875 2.914,9.172 -1.062,2.513 -4.482,5.907 -7.076,6.753 -2.406,0.786 -6.743,-0.797 -6.743,3.169 0,7.499 -11.594,17.856 -18.314,20.178 -6.55,2.263 -5.292,5.192 -0.999,9.088 2.48,2.252 0.452,8.859 -0.25,11.84 -0.965,2.645 -0.533,4.512 -2.996,6.42 -2.511,1.947 -1.089,3.612 0.749,5.086 5.345,4.289 -7.201,15.498 -8.99,20.761 -0.937,2.754 -0.947,5.925 -2.747,8.255 -2.477,3.209 7.711,9.387 10.489,9.255 2.154,-0.102 1.543,-4.963 2.664,-6.087 1.107,-1.108 21.959,-0.572 23.059,0.834 1.525,1.947 -2.983,5.034 0.416,7.337 2.954,2.003 -0.108,5.931 -0.333,8.838 l -1.082,0.334 c -0.359,1.627 -1.732,3.449 -0.666,5.253 0.737,1.25 2.702,0.15 3.08,2.502 1.026,6.386 9.139,10.204 11.073,17.509 1.328,5.013 2.359,12.167 -2.831,15.092 -3.565,2.01 -9.195,-0.502 -10.739,4.086 -2.332,6.933 -7.784,8.614 -14.402,5.17 -5.455,-2.839 -10.255,9.155 -11.655,12.424 -2.492,4.993 -5.836,7.701 -4.745,13.758 0.682,3.781 2.634,9.357 6.243,11.006 4.573,2.087 6.194,1.295 3.247,7.003 -1.471,2.851 -11.005,13.341 -2.664,13.341 3.201,0 6.693,-2.001 9.823,-1.001 2.963,0.947 6.428,5.208 9.907,6.92 6.658,3.279 -3.253,11.837 8.407,8.838 3.929,-1.011 5.775,-0.233 9.49,0.501 4.573,0.902 6.767,-2.179 10.489,-4.17 3.831,-0.195 7.464,-3.01 11.489,-2.751 3.046,0.195 5.407,2.585 8.824,2.585 4.293,0 9.185,-8.735 13.153,-3.086 2.539,3.614 8.043,3.537 11.905,4.67 3.758,1.103 6.53,3.462 10.156,4.836 11.294,4.283 24.356,1.983 36.046,7.838 4.529,0.106 9.542,5.309 12.904,4.753 3.158,-0.522 7.937,-5.402 12.154,-6.587 8.37,-2.351 15.171,2.68 22.893,-3.669 3.939,-3.239 4.286,-9.729 8.241,-12.423 4.941,-3.366 16.079,4.153 17.898,-6.253 1.973,-11.289 13.232,-7.28 23.06,-8.922 l 21.644,-6.42 c 3.882,-1.151 8.738,-1.211 12.237,-3.252 3.401,-1.985 0.973,-11.297 0.417,-14.591 -1.241,-7.345 0.48,-9.892 3.746,-16.425 1.567,-2.009 3.745,-14.345 1.748,-15.342 -1.796,-0.898 -4.654,-0.65 -6.077,-2.335 -1.048,-1.24 -0.655,-3.683 -1.498,-5.252 -2.286,-4.249 3.606,-3.27 5.41,-7.17 2.65,-5.73 1.721,-11.592 6.993,-16.425 2.192,-2.009 4.875,-1.191 6.909,-2.919 3.088,-2.624 6.39,-5.034 10.156,-6.837 2.588,-0.562 4.14,-1.226 6.243,-2.751 0.192,-2.158 -2.253,-3.804 -2.997,-5.92 -0.769,-2.189 7.799,-2.382 7.242,-8.921 -0.646,-7.6 11.684,-10.591 16.816,-14.008 5.483,-3.649 9.033,-8.781 13.486,-13.258 h 0.333 c 1.727,2.161 1.818,5.617 3.746,7.671 1.849,1.97 13.775,2.663 16.317,2.335 5.156,-0.665 8.241,-0.23 8.241,5.586 0,5.301 2.803,3.071 6.743,4.336 6.241,2.004 -1.994,7.042 -3.83,8.337 -3.671,2.593 -6.742,6.419 -6.742,11.09 0.596,2.866 2.118,6.289 0.999,8.921 -0.603,1.421 -2.083,3.41 -1.998,4.92 0.091,1.611 2.152,2.431 1.831,4.752 -0.231,1.674 -2.972,3.378 -4.412,2.085 -1.391,-1.248 -2.05,-10.22 -5.494,-7.838 -1.293,0.895 -6.315,3.851 -5.66,5.254 1.314,2.819 3.606,5.012 1.248,8.004 -3.587,4.552 -0.539,11.673 -7.158,11.673 -5.004,0 -6.835,4.16 -2.248,6.587 4.13,2.184 0.832,2.029 0.832,5.919 0,4.541 6.382,3.416 7.243,8.421 0.81,4.704 -7.023,8.033 -10.073,11.09 -2.553,3.341 -1.873,3.84 -1.082,7.17 0.303,1.279 -1.26,1.286 -1.415,2.251 -0.277,1.728 2.209,3.251 1.165,5.587 -2.355,5.265 0,9.86 -1.914,14.841 -2.585,6.707 -5.189,3.176 -9.906,5.503 -0.542,0.266 -2.595,13.815 -2.664,15.675 -0.252,6.668 14.249,8.593 18.814,9.589 2.547,-0.713 12.022,-0.404 12.238,2.918 0.541,8.34 1.011,13.143 9.323,17.176 5.012,2.432 5.901,6.374 8.99,10.422 2.795,3.661 0.012,4.167 -3.413,4.67 -5.087,0.746 6.542,4.287 2.664,7.754 -4.872,4.357 -7.65,2.666 -8.158,10.923 -0.594,1.886 -4.252,12.127 -5.161,12.757 -1.634,1.129 -3.015,-1.1 -4.578,-1.501 -2.592,-0.665 3.21,7.872 3.413,9.922 0.362,3.635 -1.567,7.597 1.831,10.422 3.537,2.943 4.524,-1.133 3.746,5.753 -0.298,2.642 -0.277,6.173 1.748,8.088 6.154,5.816 -2.386,6.147 -3.08,11.589 -0.634,4.976 -4.995,10.541 -4.995,14.592 0,1.473 1.948,1.788 3.08,2.251 4.007,1.636 4.389,-2.501 8.325,-2.501 2.816,0 3.849,2.864 7.741,2.668 3.349,0.225 4.999,2.633 7.993,1.918 l 12.57,-3.002 c 3.889,-0.929 6.844,-6.917 10.24,-8.004 2.276,-0.73 4.656,1.702 8.741,0.584 8.191,-2.241 11.91,0.92 16.399,7.087 9.172,12.605 16.6,16.727 32.717,17.092 16.088,0.366 11.007,7.391 20.562,16.258 1.372,1.332 2.527,4.725 3.728,8.753 V 155.928 L 1332.2,130.843 Z"
         fill="#fae042"
         id="path17" /><path
         d="m 1274,81.389 c -0.077,-0.294 -0.265,-0.528 -0.312,-0.854 -0.02,-0.136 0.056,-0.844 -0.104,-0.897 -0.102,-0.033 -1.059,0.12 -1.103,0.209 -0.28,0.573 0.813,1.392 0.249,1.751 -0.31,0.196 -1.054,0.34 -1.436,0.396 l -4.12,0.605 c -0.917,0.135 -1.908,0.46 -2.83,0.479 l -0.042,1.293 c 0.536,0.899 1.224,0.827 2.164,0.688 0.743,-0.11 0.997,0.785 1.603,0.667 0.477,-0.092 0.599,-0.579 0.978,-0.667 0.693,-0.16 0.665,-0.483 1.103,-0.98 0.707,-0.802 0.552,1.328 1.706,0.604 0.378,-0.236 0.313,-0.81 0.5,-1.167 0.203,-0.389 0.94,-0.138 1.311,-0.417 0.57,-0.431 -0.261,-0.818 -0.063,-1.188 0.096,-0.178 0.459,-0.277 0.396,-0.522 z"
         fill="#fae042"
         id="path19" /><path
         d="m 698.98,278.72 c -4.898,-1.633 -5.734,-2.268 -10.989,-1.668 -4.543,0.519 -6.431,-7.283 -6.243,-10.839 -0.919,-4.589 -0.755,-10.612 -0.583,-15.342 0.158,-4.353 5.743,-7.084 0,-9.338 -2.697,-1.059 -3.434,-3.789 -5.577,-4.92 -1.952,-1.031 -8.991,4.972 -8.991,-0.584 0,-7.983 -6.883,-5.685 -12.82,-7.17 -4.95,0.94 -11.04,2.029 -15.567,-0.667 -3.974,-2.368 -5.721,-4.26 -10.49,-5.586 -6.059,-1.684 -13.91,-13.492 -20.229,-8.004 -2.876,2.497 -9.242,-4.362 -12.904,-5.003 -6.296,-1.1 -11.296,-8.643 -15.817,-3.002 -3.364,4.199 0.468,5.018 -1.082,8.087 -1.617,3.203 -8.585,-3.073 -10.989,-4.002 -6.333,5.63 -1.018,5.616 -8.324,2.918 -2.796,-1.032 -2.735,6.43 -6.327,5.42 -1.371,-0.386 -2.09,-3.085 -3.829,-3.085 -4.946,0 -0.397,23.052 0.167,25.931 2.065,10.544 1.43,8.803 -7.742,9.756 -11.744,1.221 -25.264,2.375 -36.878,0 -9.053,-1.85 -4.446,-6.586 -9.074,-10.173 -2.638,-2.043 -5.969,-1.687 -8.74,-3.419 -3.31,-2.069 -10.063,-11.354 -10.74,-15.258 -0.926,-5.332 -0.972,-4.244 -4.162,-8.672 -1.182,-2.369 -4.335,-4.646 -3.246,-7.587 0.552,-1.49 3.384,-2.62 2.997,-4.252 -1.093,-4.615 -9.036,-6.407 -4.163,-12.591 7.757,-9.845 12.739,-12.406 3.913,-24.18 -1.013,-1.352 0.169,-5.569 0.333,-7.337 l -4.239,-8.629 -10e-4,-0.001 c -0.964,0.671 -1.983,1.281 -3.087,1.792 -9.222,4.267 -20.87,5.26 -30.552,8.922 -4.773,1.658 -32.802,17.468 -34.797,7.42 -0.384,-1.935 -1.025,-7.667 -2.914,-8.421 -6.021,-2.407 -6.923,-5.075 -6.16,0.333 5.18,0.745 9.565,12.45 4.912,13.758 l -6.826,1.918 c -2.172,0.61 -9.158,5.507 -9.158,1.751 0,-4.966 5.956,-6.942 6.243,-9.755 0.241,-2.365 -4.821,-1.021 -5.743,-0.417 -1.505,0.984 -7.179,5.853 -4.995,0.083 0.882,-2.331 5.411,-3.255 5.411,-6.419 -5.075,-1.282 -11.086,3.134 -9.823,8.838 1.299,5.872 4.296,9.225 -0.083,14.174 -3.285,3.711 -13.333,5.109 -17.815,7.504 l -32.134,14.425 -19.063,15.675 c -10.336,8.5 -30.351,24.87 -43.122,27.932 l -48.036,32.852 c -12.015,8.217 -24.797,20.465 -37.961,26.014 -9.388,5.184 -20.829,9.901 -29.137,16.758 -6.027,4.973 -14.828,10.517 -21.894,13.925 -13.187,6.361 -27.529,11.784 -39.209,20.678 -6.922,5.305 -15.999,7.955 -22.976,13.174 -1.936,1.449 -4.319,2.911 -6.852,4.318 v 1.373 c 0.148,0.187 0.293,0.377 0.441,0.563 l 6.66,16.258 3.33,21.679 c 0.81,5.273 3.171,10.192 3.579,15.592 0.273,3.61 -2.078,6.368 -0.999,9.756 1.071,3.36 7.22,9.522 10.24,11.256 1.789,1.026 6.304,-0.21 7.242,1.668 1.164,2.33 1.165,6.446 1.165,9.088 0,5.336 6.107,12.754 8.075,17.926 l 2.664,7.003 c 1.588,4.176 -3.83,3.676 -4.912,8.755 -0.909,4.268 -3.211,4.722 -6.16,7.337 -1.324,1.172 -7.575,9.1 -7.575,10.506 0,4.574 9.512,-2.554 7.492,5.586 -2.283,5.034 -0.901,5.161 1.748,8.254 0.415,0.485 -2.573,5.397 -2.497,7.42 0.099,2.617 2.027,4.306 2.747,6.67 0.674,2.211 -1.471,3.659 -2.247,5.753 -1.263,3.404 4.969,4.568 1.914,9.839 -2.003,3.454 -3.886,4.868 -3.746,9.338 0.09,2.877 3.347,1.669 5.244,1.751 3.048,0.131 -0.319,6.033 1.832,7.587 2.827,2.042 4.162,1.582 4.162,6.337 -0.294,3.16 3.62,11.499 6.41,13.257 8.92,5.619 12.418,-9.843 18.397,-1.667 3.164,4.326 19.812,1.615 25.64,3.085 3.644,4.872 -3.181,6.744 -1.665,11.923 1.496,5.107 6.168,12.077 10.906,14.425 7.949,3.938 8.657,5.436 8.657,13.007 0.099,0.125 0.135,0.175 0.167,0.334 0.486,0.39 1.684,1.242 1.831,1.835 0.975,0.694 0.126,3.451 0.25,4.586 0.969,0.693 3.257,1.435 4.495,1.501 7.575,0.672 2.277,8.701 5.161,13.924 3.267,5.919 10.684,16.536 18.897,14.926 3.79,-0.744 11.989,-5.396 15.318,-2.252 2.789,2.633 5.409,8.494 7.575,11.757 l 5.244,3.919 c 6.241,-7.221 7.48,5.669 12.82,5.669 2.485,0 3.236,-2.668 3.58,-4.669 0.524,-3.045 7.051,-1.97 9.49,-5.42 3.53,-4.992 -0.663,-12.053 1.664,-15.758 0.959,-1.527 7.148,-3.028 6.327,-5.42 -1.363,-3.973 -5.416,-4.805 -1.415,-9.505 3.066,-3.603 6.448,-7.881 11.738,-4.753 4.931,2.917 16.478,-7.956 20.229,-11.089 2.533,-2.116 3.419,-5.013 7.159,-5.586 6.151,-0.945 8.741,4.263 13.736,-3.252 6.488,-9.76 12.89,1.378 18.231,2.751 9.114,2.344 7.844,-7.338 12.987,-10.589 2.636,-1.667 5.34,-2.92 8.152,-3.902 l 4.252,2.985 c 1.814,-0.959 9.938,-4.342 10.906,-1.334 0.722,2.242 0.633,5.026 1.581,7.087 1.785,3.878 4.702,7.179 6.493,10.922 0.755,1.578 0.232,3.167 1.499,4.67 1.5,1.779 2.582,2.367 3.829,4.503 l 1.831,5.169 c 1.816,5.124 5.221,5.077 8.075,8.671 1.101,1.388 -2.07,5.98 -2.497,7.671 -1.144,4.534 8.023,1.934 7.242,9.004 -0.642,5.808 9.776,2.093 12.57,1.835 7.998,-0.738 9.807,3.365 13.986,9.171 1.647,2.287 0.091,4.851 -1.249,6.837 -2.338,3.466 0.535,5.383 1.332,8.588 6.107,7.825 -4.843,4.293 -8.158,10.256 -3.611,6.499 -0.598,9.144 2.247,14.591 1.203,2.304 -1.515,6.669 -1.665,9.339 -0.177,3.12 3.407,4.821 4.246,8.004 0.523,1.981 -0.058,4.663 1.248,6.253 2.463,2.999 4.48,4.156 6.243,7.921 0.451,3.823 2.615,6.065 2.498,10.339 -0.167,6.134 0.787,9.706 1.998,15.425 0.618,2.921 -2.31,7.457 -1.499,9.088 0.759,1.525 4.763,3.608 4.246,5.253 -0.408,1.295 -3.508,1.103 -4.079,3.669 -0.6,2.693 5.127,1.885 3.329,4.419 -2.65,3.737 -1.945,7.251 -1.498,11.59 l 4.995,9.171 c 2.171,3.986 8.122,3.571 12.404,4.753 5.875,1.622 3.777,4.662 6.742,8.171 4.087,4.834 14.466,-0.979 20.063,8.005 2.96,4.749 6.149,9.266 11.405,4.002 3.999,-4.004 4.16,-3.502 9.74,-3.502 3.959,0 4.048,-2.567 7.075,-4.169 2.918,-1.543 8.431,-1.324 11.905,-2.669 1.827,-0.708 5.192,-9.896 6.243,-12.09 2.306,-1.254 3.957,-1.575 4.911,-4.336 0.508,-1.469 1.14,-4.56 3.08,-4.67 1.327,-0.075 2.587,2.295 3.497,3.169 2.483,2.378 7.642,0.029 10.822,0.5 4.77,0.705 8.323,4.666 6.993,9.756 -1.348,5.168 -7.523,8.112 -8.741,13.924 0.168,2.375 0.082,7.911 1.665,9.589 2.054,2.179 7.002,-3.001 8.657,-4.419 2.89,-2.479 7.14,-3.002 10.823,-3.002 4.727,0 16.251,-4.517 18.98,-0.417 2.812,4.223 2.271,9.397 9.407,4.503 8.542,-5.858 8.094,-0.339 13.569,5.669 5.473,6.004 6.692,8.865 9.906,16.509 1.362,3.844 6.307,2.046 8.159,4.919 1.234,1.914 -0.473,4.082 0.249,6.17 1.307,3.776 4.629,6.143 4.163,10.505 -0.772,7.213 2.747,11.83 2.747,18.677 0,4.95 1.802,16.144 -0.666,20.178 -1.233,1.948 -1.13,4.457 -2.664,6.253 -1.38,1.613 -3.435,2.807 -4.079,5.003 -0.74,2.525 4.875,4.148 4.745,8.588 -0.092,3.186 -0.916,6.213 -0.916,9.505 0,4.916 6.002,5.489 4.579,10.339 -1.382,4.71 3.46,8.21 6.243,11.923 3.251,3.5 7.658,14.368 12.154,15.425 6.198,1.459 0.083,-9.344 0.083,-12.091 2.846,0 3.117,3.249 3.913,5.253 0.918,2.313 3.294,3.244 5.411,1.251 1.137,-1.071 -1.008,-10.09 -0.5,-12.591 0.583,-2.874 3.206,-5.24 3.746,-8.504 0.988,-5.961 3.58,-13.31 10.406,-9.505 5.297,2.952 3.447,-0.778 5.994,-2.836 1.875,-1.516 6.83,-0.297 9.24,-0.583 3.958,1.458 9.104,-0.751 13.403,-0.751 2.178,1.748 -2.41,7.863 2.913,6.337 3.081,-0.883 3.897,-4.545 6.68,-5.498 v -686.12 c -0.975,0.011 -2.068,-0.139 -3.423,-0.591 z"
         id="path21" /></g><text
       xml:space="preserve"
       style="font-size:9.06097px;fill:#fae042;fill-opacity:1;stroke-width:0.75508"
       x="131.54034"
       y="23.629881"
       id="text380"><tspan
         sodipodi:role="line"
         id="tspan378"
         style="font-style:normal;font-variant:normal;font-weight:normal;font-stretch:normal;font-size:9.06097px;font-family:'Segoe Print';-inkscape-font-specification:'Segoe Print, Normal';font-variant-ligatures:normal;font-variant-caps:normal;font-variant-numeric:normal;font-variant-east-asian:normal;text-align:center;text-anchor:middle;fill:#fae042;fill-opacity:1;stroke-width:0.75508"
         x="131.54034"
         y="23.629881" /><tspan
         sodipodi:role="line"
         style="font-style:normal;font-variant:normal;font-weight:normal;font-stretch:normal;font-size:9.06097px;font-family:'Segoe Print';-inkscape-font-specification:'Segoe Print, Normal';font-variant-ligatures:normal;font-variant-caps:normal;font-variant-numeric:normal;font-variant-east-asian:normal;text-align:center;text-anchor:middle;fill:#fae042;fill-opacity:1;stroke-width:0.75508"
         x="131.54034"
         y="35.449654"
         id="tspan384">Nederlands / Vlaams</tspan></text><text
       xml:space="preserve"
       style="font-size:9.06097px;fill:#000000;fill-opacity:1;stroke-width:0.75508"
       x="131.54034"
       y="12.093047"
       id="text380-1"><tspan
         sodipodi:role="line"
         id="tspan378-4"
         style="font-style:normal;font-variant:normal;font-weight:normal;font-stretch:normal;font-size:9.06097px;font-family:'Segoe Print';-inkscape-font-specification:'Segoe Print, Normal';font-variant-ligatures:normal;font-variant-caps:normal;font-variant-numeric:normal;font-variant-east-asian:normal;text-align:center;text-anchor:middle;fill:#000000;fill-opacity:1;stroke-width:0.75508"
         x="131.54034"
         y="12.093047" /><tspan
         sodipodi:role="line"
         style="font-style:normal;font-variant:normal;font-weight:normal;font-stretch:normal;font-size:9.06097px;font-family:'Segoe Print';-inkscape-font-specification:'Segoe Print, Normal';font-variant-ligatures:normal;font-variant-caps:normal;font-variant-numeric:normal;font-variant-east-asian:normal;text-align:center;text-anchor:middle;fill:#000000;fill-opacity:1;stroke-width:0.75508"
         x="131.54034"
         y="23.912819"
         id="tspan384-8">nl-BE</tspan></text></g></svg>
